<svg width="40" height="40" fill="none" xmlns="http://www.w3.org/2000/svg">
<path fill-rule="evenodd" clip-rule="evenodd" d="M14.3146 38.288C13.1364 38.288 13.2056 38.2187 11.5422 37.2489C9.87876 36.2792 7.66085 34.7553 6.75978 33.7856C5.85877 32.8158 4.68048 31.1532 4.40324 30.3913C4.0567 29.4908 3.57154 28.3132 3.77947 27.6899C3.9181 27.3435 4.19533 26.9972 4.47257 25.9582C4.74982 25.0577 4.47257 23.3951 4.47257 22.8411C4.47257 22.4254 4.12603 21.4556 3.77947 20.6937C3.43291 20.001 2.18533 18.962 1.70016 18.2693C1.21499 17.5766 0.313962 15.4292 0.175343 14.598C0.0367219 13.7668 -0.101898 11.2731 0.106032 10.4419C0.452581 8.71018 0.868442 7.74042 1.2843 6.9092C1.76948 5.80089 3.77947 3.7228 4.47257 3.23792C5.9974 2.19889 7.59154 1.2984 9.53224 0.744248C10.8491 0.328636 11.8195 0.190098 12.9284 0.120828C14.3146 -0.086979 17.9881 -0.0177097 19.3743 0.259367C21.4536 0.744248 23.5329 1.57548 24.9191 2.61451C26.2359 3.7228 26.9984 4.48478 28.0381 6.21651C28.7311 7.3248 29.0085 8.71018 29.3549 9.74919C29.7015 10.8575 29.7708 13.6975 29.7708 14.4595C29.7708 15.2215 29.4936 16.1219 29.4242 16.2605C29.3549 16.3298 28.6618 16.8839 28.6618 17.2995C28.6618 17.7151 28.6618 17.8537 28.8697 18.2C29.0777 18.5464 29.6322 19.7932 29.9093 20.1396C30.1867 20.4858 31.0183 21.8713 31.2263 22.3561C31.4342 22.8411 31.7808 23.3258 31.5035 23.8801C31.2263 24.4342 30.3945 24.2956 29.8401 24.3649C29.3549 24.4342 28.6618 24.3649 28.5233 24.8499C28.4538 25.1268 28.6618 25.4732 28.6618 25.4732C29.0777 25.8196 28.8697 26.5123 28.4538 26.7201C28.1074 26.928 28.0381 26.928 27.6915 27.0663C27.3449 27.2049 27.4143 27.2049 27.6222 27.5513C27.83 27.8977 27.83 28.3132 27.7608 28.5903C27.6915 28.8675 27.2063 28.7982 26.7904 28.9368C26.444 29.0751 26.0974 29.2137 26.0974 29.6987C26.0974 29.9756 26.3052 30.5992 26.0974 31.2225C25.8895 31.7768 25.1963 32.5387 24.5725 32.8158C23.9488 33.0927 22.7011 33.0927 22.008 32.9544C21.315 32.8158 20.1367 32.4001 19.6515 32.2616C19.2356 32.123 18.8198 32.3308 18.2653 32.8849C17.7108 33.4392 17.087 34.4782 16.6712 35.1708C16.2553 35.8637 15.4929 37.1104 15.077 37.5261C15.0077 38.0801 14.3146 38.288 14.3146 38.288Z" fill="#35B34A"/>
<path fill-rule="evenodd" clip-rule="evenodd" d="M6.96623 9.19609H9.94654V18.8245H10.7783V21.3182H12.3031C12.4417 21.1104 12.5803 20.9718 12.6497 20.8332L12.7189 20.764H11.3327V18.0625H10.501V8.71123H9.18414V2.75408C8.62967 2.96189 8.14447 3.1697 7.65932 3.44677H8.76828V4.62435H7.59V3.44677C7.24346 3.65458 6.96623 3.86239 6.68897 4.0702C4.67897 5.66339 4.33243 6.42535 3.77795 7.74147C3.70864 7.88001 3.70864 7.94925 3.63932 8.0878C3.43139 8.5034 3.15415 9.05756 2.87692 9.54247C2.53036 10.1659 2.18381 10.7893 2.1145 11.1356C1.76795 12.3132 1.69864 14.4605 2.25313 15.361C2.39174 15.5688 2.59967 15.7767 2.87692 15.9845C2.66899 15.7767 2.53036 15.4996 2.53036 15.1532C2.53036 14.5298 3.08485 13.9757 3.70864 13.9757C4.33243 13.9757 4.81758 14.3913 4.88692 15.0147H8.56033V14.4605H7.93656V13.0751H8.56033V12.4518H4.88692C4.74829 13.0059 4.33243 13.3522 3.70864 13.3522C3.08485 13.3522 2.53036 12.7981 2.53036 12.1747C2.53036 11.5512 3.08485 10.9971 3.70864 10.9971C4.26311 10.9971 4.74829 11.4127 4.88692 11.8976H9.04553V13.56H8.42172V13.9757H9.04553V15.5688H4.88692C4.74829 16.0537 4.26311 16.4001 3.77795 16.4001C3.70864 16.4001 3.63932 16.4001 3.50071 16.4001C3.70864 16.5386 3.98588 16.6079 4.19381 16.7464C4.60969 16.9542 4.9562 17.3698 5.16416 17.7854H8.07518V19.725H10.0852V22.7728C10.3624 23.0499 10.6396 23.2578 10.9862 23.2578C11.0555 23.2578 11.1248 23.2578 11.1941 23.2578C11.3327 23.0499 11.6793 22.4266 12.0952 21.8723H10.501V19.3786H9.6693V9.54247H6.96623C6.89688 10.0966 6.41174 10.5122 5.78793 10.5122C5.16416 10.5122 4.60969 9.95806 4.60969 9.33464C4.60969 8.71123 5.16416 8.15708 5.78793 8.15708C6.41174 8.15708 6.89688 8.64195 6.96623 9.19609ZM25.0561 11.0664V7.81071L25.9572 7.74147C26.3038 8.29561 26.5809 8.71123 26.6502 8.91902V9.12685C26.789 9.95806 26.9968 11.8976 26.6502 12.5903C26.5116 12.7981 26.3731 13.0751 26.2345 13.283H23.8086V15.2225C23.7393 15.2225 23.67 15.2225 23.67 15.2225C23.3927 15.1532 23.0463 15.1532 22.7689 15.1532C22.2838 15.1532 22.0066 15.2225 21.7986 15.361H15.9765V11.9669H20.1351V5.31704H17.1548V2.40775C18.3331 2.54627 19.7886 2.89263 20.6896 3.23897V13.3522H18.4717C18.4024 12.8674 17.9866 12.521 17.4321 12.521C16.8776 12.521 16.3924 13.0059 16.3924 13.56C16.3924 14.1142 16.8776 14.5991 17.4321 14.5991C17.9172 14.5991 18.3331 14.2527 18.4717 13.7678H21.0363V3.37751C21.2441 3.44677 21.4522 3.58532 21.66 3.65458C22.4223 4.00092 23.1848 4.41656 23.67 4.83218C23.9472 5.10925 24.5016 5.73266 25.0561 6.42535H23.7393V10.9278H23.1156V13.1444C22.9075 13.0059 22.6997 12.8674 22.4223 12.8674C21.8679 12.8674 21.3827 13.3522 21.3827 13.9064C21.3827 14.4605 21.8679 14.9454 22.4223 14.9454C22.8382 14.9454 23.1848 14.7376 23.3234 14.3913H23.3927V14.1142C23.3927 14.0449 23.3927 13.9757 23.3927 13.9064C23.3927 13.8371 23.3927 13.7678 23.3927 13.6986V11.2049H24.0164V6.7717H25.2641C25.4027 6.97949 25.6108 7.18732 25.7493 7.39511L24.7097 7.46439V11.0664C24.2245 11.1356 23.8779 11.5512 23.8779 12.1054C23.8779 12.6595 24.3631 13.1444 24.9175 13.1444C25.472 13.1444 25.9572 12.6595 25.9572 12.1054C25.8879 11.5512 25.5413 11.1356 25.0561 11.0664ZM25.8879 13.7678C25.7493 13.9064 25.6108 14.0449 25.472 14.1835C25.0561 14.5991 24.6404 14.8761 24.2938 15.0147V13.6986H25.8879V13.7678ZM26.3731 13.6986C26.5809 13.4215 26.789 13.0751 26.9968 12.7288C27.4127 11.9669 27.2049 10.0273 27.0661 9.05756V8.84977C26.9275 7.94925 24.4323 5.17849 23.8779 4.62435C23.3927 4.13947 22.5611 3.72385 21.7986 3.37751C21.5907 3.30825 21.3827 3.1697 21.1748 3.10044C19.9965 2.54627 17.5014 2.06139 16.1152 1.99213C15.5607 1.92287 14.7982 1.92287 13.9665 1.92287C12.511 1.92287 11.1941 1.99213 10.501 2.13068C9.18416 2.33849 7.59 3.03116 6.55037 3.79313C4.47106 5.38632 4.05518 6.21756 3.50071 7.60294C3.43139 7.67218 3.43139 7.81071 3.36208 7.94925C3.15415 8.36487 2.87692 8.91902 2.59967 9.40392C2.25313 10.0966 1.90657 10.72 1.76795 11.0664C1.4214 12.2439 1.28278 14.5298 1.97588 15.5688C2.39174 16.1923 3.29278 16.6079 4.0552 16.9542C4.67897 17.2313 5.16416 18.2703 5.16416 18.4781C5.16416 18.8937 6.48102 20.4177 7.31274 20.764C7.52071 20.8332 7.86723 20.9025 8.14447 20.9718C8.42172 21.0411 8.83758 21.1104 8.9069 21.1797V21.2489C8.9069 21.5259 8.9069 21.9416 9.39205 22.3573C9.46139 22.4266 9.53067 22.4956 9.6 22.5649V22.6342H9.6693L9.73862 22.7035C10.0852 23.0499 10.501 23.4654 11.0555 23.4654C11.1941 23.4654 11.2635 23.4654 11.4021 23.3963H11.4714V23.327C11.4714 23.327 12.5803 21.5952 12.9269 21.1104C12.9962 20.9718 13.1348 20.9025 13.2041 20.764H13.3427V20.6947C13.412 20.6254 13.4121 20.6254 13.4814 20.5561C13.8279 20.2792 14.1745 20.002 14.2438 19.6557C14.3131 19.2401 15.4221 18.4089 15.7686 18.3396C16.1152 18.2703 16.8775 18.2703 17.64 18.3396C18.1945 18.4089 18.4717 18.0625 18.749 17.7854C18.8876 17.5776 19.0955 17.4391 19.3034 17.3698H19.3728H19.4421C19.8579 17.3006 20.4818 16.9542 20.967 16.6079H21.0363V16.5386C21.1748 16.4 21.3827 16.2615 21.4522 16.123C21.66 15.8459 21.7986 15.7074 21.7986 15.7074C21.8679 15.7074 21.8679 15.7074 21.9371 15.6381C22.0066 15.5688 22.2838 15.4996 22.6997 15.4996C22.9768 15.4996 23.2541 15.4996 23.5315 15.5688C23.6007 15.5688 23.67 15.5688 23.7393 15.5688C24.5016 15.5688 25.4027 14.8069 25.68 14.4605C25.9572 14.2527 26.1652 14.0449 26.3731 13.6986ZM21.4522 15.6381C21.3827 15.7074 21.3134 15.7767 21.2441 15.8459C21.1748 15.9152 21.1055 15.9845 21.0363 16.0537H15.2141V11.0664H19.3728V6.14825H16.2538V2.33849C16.3924 2.33849 16.6003 2.33849 16.739 2.40775V5.66339H19.7193V11.6205H15.5607V15.6381H21.4522ZM20.4123 16.5386C20.0659 16.7464 19.65 16.9542 19.3728 16.9542C19.3034 16.9542 19.3034 16.9542 19.2341 17.0235H14.2438L14.3131 14.322H14.0359V10.0273H18.4717V7.18732H15.4221V2.2692C15.5607 2.2692 15.6993 2.2692 15.8379 2.2692V6.63318H18.9569V10.5122H14.7982V16.5386H20.4123ZM18.6797 17.3698C18.6103 17.4391 18.541 17.5084 18.4717 17.5776C18.1945 17.8547 17.9866 18.0625 17.64 17.9933C17.2241 17.924 16.8775 17.924 16.531 17.924C16.2538 17.924 15.9765 17.924 15.7686 17.9933V17.924H13.3427V15.7074H12.7189V9.26539H14.0359V2.19994C14.3824 2.19994 14.729 2.19994 15.0755 2.19994V7.46439H18.1252V9.61171H13.6893V14.5991H13.9665L13.8972 17.3006H18.6797V17.3698ZM5.44141 18.1318C5.51069 18.2703 5.51069 18.4089 5.51069 18.4781C5.51069 18.686 6.68899 20.0713 7.45137 20.4177C7.59 20.487 7.93658 20.5561 8.21381 20.5561C8.76828 20.6254 9.25344 20.6947 9.25344 21.0411C9.25344 21.1104 9.25344 21.1104 9.25344 21.1797C9.25344 21.4568 9.25344 21.7337 9.6 22.0109V19.9328H7.59V17.9933H5.44141V18.1318ZM15.1448 18.2703C14.9369 18.4089 14.6596 18.6167 14.4517 18.8245H12.7883V16.7464H11.8179V8.43416H12.7883V2.19994C13.0655 2.19994 13.412 2.19994 13.6893 2.19994V8.9883H12.3724V16.0537H12.9962V18.2703H15.1448ZM14.1051 19.1708C13.9665 19.3093 13.8972 19.4479 13.8972 19.5864C13.8279 19.7943 13.62 20.0713 13.3427 20.2792H11.8872V17.5776H11.0555V8.22633H9.73862V2.54627C9.94654 2.47701 10.1545 2.47701 10.2931 2.40775V3.44677H11.4714V2.33849C11.7486 2.33849 12.0258 2.33849 12.3031 2.2692V8.15708H11.3327V17.0927H12.3031V19.1708H14.1051ZM7.52071 7.11802C7.52071 7.39511 7.31274 7.60294 7.03551 7.60294H6.34241C6.06516 7.60294 5.85727 7.39511 5.85727 7.11802C5.85727 6.84095 6.06516 6.63318 6.34241 6.63318H7.03551C7.24346 6.63318 7.52071 6.84095 7.52071 7.11802ZM7.52071 5.59411C7.52071 5.87118 7.31274 6.07901 7.03551 6.07901H6.34241C6.06516 6.07901 5.85727 5.87118 5.85727 5.59411C5.85727 5.31704 6.06516 5.10925 6.34241 5.10925H7.03551C7.24346 5.03997 7.52071 5.31704 7.52071 5.59411ZM16.0459 8.64194C16.0459 8.91902 15.8379 9.12685 15.5607 9.12685H14.8676C14.5903 9.12685 14.3824 8.91902 14.3824 8.64194C14.3824 8.36487 14.5903 8.15708 14.8676 8.15708H15.5607C15.8379 8.15708 16.0459 8.36487 16.0459 8.64194ZM19.5807 3.86239C19.5807 4.13947 19.3728 4.34727 19.0955 4.34727H18.4024C18.1252 4.34727 17.9172 4.13947 17.9172 3.86239C17.9172 3.58532 18.1252 3.37751 18.4024 3.37751H19.0955C19.3728 3.30825 19.5807 3.58532 19.5807 3.86239ZM10.2238 7.53364H11.61V6.21756H10.2238V7.53364ZM10.2238 5.59411H11.61V4.27803H10.2238V5.59411ZM16.3231 9.26539H17.7093V8.0878H16.3231V9.26539ZM21.3827 11.5512H22.5611V10.3737H21.3827V11.5512ZM21.3827 9.05756H22.5611V7.88001H21.3827V9.05756ZM21.3827 6.7717H22.5611V5.59411H21.3827V6.7717ZM5.78793 8.5034C5.30278 8.5034 4.95621 8.84977 4.95621 9.33464C4.95621 9.81954 5.30278 10.1659 5.78793 10.1659C6.27311 10.1659 6.61965 9.81954 6.61965 9.33464C6.61965 8.84977 6.27311 8.5034 5.78793 8.5034ZM3.77795 11.2742C3.29278 11.2742 2.94622 11.6205 2.94622 12.1054C2.94622 12.5903 3.29278 12.9366 3.77795 12.9366C4.26311 12.9366 4.60969 12.5903 4.60969 12.1054C4.60969 11.6205 4.19381 11.2742 3.77795 11.2742ZM3.77795 14.322C3.29278 14.322 2.94622 14.6684 2.94622 15.1532C2.94622 15.6381 3.29278 15.9845 3.77795 15.9845C4.26311 15.9845 4.60969 15.6381 4.60969 15.1532C4.60969 14.6684 4.19381 14.322 3.77795 14.322ZM24.8482 11.3434C24.5016 11.3434 24.1552 11.6205 24.1552 12.0361C24.1552 12.3825 24.4323 12.7288 24.8482 12.7288C25.1949 12.7288 25.5413 12.4518 25.5413 12.0361C25.5413 11.6898 25.2641 11.3434 24.8482 11.3434ZM22.2838 13.283C21.9371 13.283 21.5907 13.56 21.5907 13.9757C21.5907 14.322 21.8679 14.6684 22.2838 14.6684C22.6997 14.6684 22.9768 14.3913 22.9768 13.9757C22.9768 13.56 22.6997 13.283 22.2838 13.283ZM17.4321 12.8674C17.0855 12.8674 16.739 13.1444 16.739 13.56C16.739 13.9064 17.0162 14.2527 17.4321 14.2527C17.7786 14.2527 18.1252 13.9757 18.1252 13.56C18.1252 13.1444 17.7786 12.8674 17.4321 12.8674Z" fill="white"/>
</svg>
